<svg xmlns="http://www.w3.org/2000/svg" xmlns:xlink="http://www.w3.org/1999/xlink" width="500" zoomAndPan="magnify" viewBox="0 0 375 374.999991" height="500" preserveAspectRatio="xMidYMid meet" version="1.0"><defs><g/></defs><rect x="-37.5" width="450" fill="#ffffff" y="-37.499999" height="449.999989" fill-opacity="1"/><rect x="-37.5" width="450" fill="#490964" y="-37.499999" height="449.999989" fill-opacity="1"/><g fill="#ffffff" fill-opacity="1"><g transform="translate(43.832101, 200.191876)"><g><path d="M 28.78125 -22.703125 C 32.84375 -21.753906 35.691406 -20.609375 37.328125 -19.265625 C 39.691406 -17.347656 40.875 -14.863281 40.875 -11.8125 C 40.875 -8.59375 39.578125 -5.929688 36.984375 -3.828125 C 33.804688 -1.273438 29.1875 0 23.125 0 L 1.359375 0 L 1.359375 -1.171875 C 3.335938 -1.171875 4.675781 -1.351562 5.375 -1.71875 C 6.082031 -2.09375 6.578125 -2.570312 6.859375 -3.15625 C 7.148438 -3.75 7.296875 -5.203125 7.296875 -7.515625 L 7.296875 -35.3125 C 7.296875 -37.625 7.148438 -39.082031 6.859375 -39.6875 C 6.578125 -40.289062 6.078125 -40.769531 5.359375 -41.125 C 4.648438 -41.476562 3.316406 -41.65625 1.359375 -41.65625 L 1.359375 -42.828125 L 21.890625 -42.828125 C 26.796875 -42.828125 30.269531 -42.390625 32.3125 -41.515625 C 34.351562 -40.640625 35.960938 -39.332031 37.140625 -37.59375 C 38.316406 -35.863281 38.90625 -34.019531 38.90625 -32.0625 C 38.90625 -30 38.15625 -28.160156 36.65625 -26.546875 C 35.164062 -24.929688 32.539062 -23.648438 28.78125 -22.703125 Z M 17.28125 -23.5625 C 20.269531 -23.5625 22.472656 -23.894531 23.890625 -24.5625 C 25.316406 -25.238281 26.40625 -26.1875 27.15625 -27.40625 C 27.914062 -28.632812 28.296875 -30.195312 28.296875 -32.09375 C 28.296875 -33.988281 27.921875 -35.539062 27.171875 -36.75 C 26.429688 -37.957031 25.363281 -38.878906 23.96875 -39.515625 C 22.582031 -40.148438 20.351562 -40.457031 17.28125 -40.4375 Z M 17.28125 -21.09375 L 17.28125 -7.359375 L 17.25 -5.78125 C 17.25 -4.644531 17.535156 -3.785156 18.109375 -3.203125 C 18.691406 -2.628906 19.550781 -2.34375 20.6875 -2.34375 C 22.375 -2.34375 23.925781 -2.710938 25.34375 -3.453125 C 26.769531 -4.203125 27.859375 -5.285156 28.609375 -6.703125 C 29.367188 -8.128906 29.75 -9.71875 29.75 -11.46875 C 29.75 -13.46875 29.285156 -15.257812 28.359375 -16.84375 C 27.429688 -18.4375 26.15625 -19.546875 24.53125 -20.171875 C 22.914062 -20.804688 20.5 -21.113281 17.28125 -21.09375 Z M 17.28125 -21.09375 "/></g></g></g><g fill="#ffffff" fill-opacity="1"><g transform="translate(93.965791, 200.191876)"><g><path d="M 17.625 -40.359375 L 17.625 -22.9375 L 18.484375 -22.9375 C 21.191406 -22.9375 23.15625 -23.785156 24.375 -25.484375 C 25.601562 -27.191406 26.382812 -29.707031 26.71875 -33.03125 L 27.921875 -33.03125 L 27.921875 -10.609375 L 26.71875 -10.609375 C 26.46875 -13.054688 25.9375 -15.054688 25.125 -16.609375 C 24.3125 -18.171875 23.367188 -19.21875 22.296875 -19.75 C 21.222656 -20.289062 19.664062 -20.5625 17.625 -20.5625 L 17.625 -8.5 C 17.625 -6.132812 17.722656 -4.6875 17.921875 -4.15625 C 18.117188 -3.632812 18.492188 -3.207031 19.046875 -2.875 C 19.597656 -2.539062 20.484375 -2.375 21.703125 -2.375 L 24.265625 -2.375 C 28.265625 -2.375 31.46875 -3.296875 33.875 -5.140625 C 36.289062 -6.992188 38.023438 -9.816406 39.078125 -13.609375 L 40.234375 -13.609375 L 38.3125 0 L 1.296875 0 L 1.296875 -1.171875 L 2.71875 -1.171875 C 3.957031 -1.171875 4.957031 -1.390625 5.71875 -1.828125 C 6.257812 -2.128906 6.679688 -2.632812 6.984375 -3.34375 C 7.210938 -3.851562 7.328125 -5.179688 7.328125 -7.328125 L 7.328125 -35.5 C 7.328125 -37.4375 7.273438 -38.628906 7.171875 -39.078125 C 6.960938 -39.804688 6.570312 -40.375 6 -40.78125 C 5.195312 -41.363281 4.101562 -41.65625 2.71875 -41.65625 L 1.296875 -41.65625 L 1.296875 -42.828125 L 37.140625 -42.828125 L 37.140625 -30.171875 L 35.9375 -30.171875 C 35.332031 -33.265625 34.476562 -35.484375 33.375 -36.828125 C 32.269531 -38.171875 30.707031 -39.160156 28.6875 -39.796875 C 27.5 -40.171875 25.285156 -40.359375 22.046875 -40.359375 Z M 17.625 -40.359375 "/></g></g></g><g fill="#ffffff" fill-opacity="1"><g transform="translate(144.099482, 200.191876)"><g><path d="M 40.84375 -15.03125 L 39.234375 0 L 1.203125 0 L 1.203125 -1.171875 L 2.625 -1.171875 C 3.863281 -1.171875 4.863281 -1.390625 5.625 -1.828125 C 6.164062 -2.128906 6.585938 -2.632812 6.890625 -3.34375 C 7.117188 -3.851562 7.234375 -5.179688 7.234375 -7.328125 L 7.234375 -35.5 C 7.234375 -37.6875 7.113281 -39.054688 6.875 -39.609375 C 6.644531 -40.160156 6.175781 -40.640625 5.46875 -41.046875 C 4.769531 -41.453125 3.820312 -41.65625 2.625 -41.65625 L 1.203125 -41.65625 L 1.203125 -42.828125 L 24.03125 -42.828125 L 24.03125 -41.65625 L 22.171875 -41.65625 C 20.929688 -41.65625 19.929688 -41.4375 19.171875 -41 C 18.617188 -40.707031 18.1875 -40.203125 17.875 -39.484375 C 17.644531 -38.972656 17.53125 -37.644531 17.53125 -35.5 L 17.53125 -8.21875 C 17.53125 -6.019531 17.65625 -4.617188 17.90625 -4.015625 C 18.15625 -3.421875 18.648438 -2.976562 19.390625 -2.6875 C 19.921875 -2.5 21.195312 -2.40625 23.21875 -2.40625 L 26.78125 -2.40625 C 29.0625 -2.40625 30.957031 -2.800781 32.46875 -3.59375 C 33.988281 -4.394531 35.300781 -5.660156 36.40625 -7.390625 C 37.507812 -9.117188 38.554688 -11.664062 39.546875 -15.03125 Z M 40.84375 -15.03125 "/></g></g></g><g fill="#ffffff" fill-opacity="1"><g transform="translate(194.233172, 200.191876)"><g><path d="M 17.625 -40.359375 L 17.625 -22.9375 L 18.484375 -22.9375 C 21.191406 -22.9375 23.15625 -23.785156 24.375 -25.484375 C 25.601562 -27.191406 26.382812 -29.707031 26.71875 -33.03125 L 27.921875 -33.03125 L 27.921875 -10.609375 L 26.71875 -10.609375 C 26.46875 -13.054688 25.9375 -15.054688 25.125 -16.609375 C 24.3125 -18.171875 23.367188 -19.21875 22.296875 -19.75 C 21.222656 -20.289062 19.664062 -20.5625 17.625 -20.5625 L 17.625 -8.5 C 17.625 -6.132812 17.722656 -4.6875 17.921875 -4.15625 C 18.117188 -3.632812 18.492188 -3.207031 19.046875 -2.875 C 19.597656 -2.539062 20.484375 -2.375 21.703125 -2.375 L 24.265625 -2.375 C 28.265625 -2.375 31.46875 -3.296875 33.875 -5.140625 C 36.289062 -6.992188 38.023438 -9.816406 39.078125 -13.609375 L 40.234375 -13.609375 L 38.3125 0 L 1.296875 0 L 1.296875 -1.171875 L 2.71875 -1.171875 C 3.957031 -1.171875 4.957031 -1.390625 5.71875 -1.828125 C 6.257812 -2.128906 6.679688 -2.632812 6.984375 -3.34375 C 7.210938 -3.851562 7.328125 -5.179688 7.328125 -7.328125 L 7.328125 -35.5 C 7.328125 -37.4375 7.273438 -38.628906 7.171875 -39.078125 C 6.960938 -39.804688 6.570312 -40.375 6 -40.78125 C 5.195312 -41.363281 4.101562 -41.65625 2.71875 -41.65625 L 1.296875 -41.65625 L 1.296875 -42.828125 L 37.140625 -42.828125 L 37.140625 -30.171875 L 35.9375 -30.171875 C 35.332031 -33.265625 34.476562 -35.484375 33.375 -36.828125 C 32.269531 -38.171875 30.707031 -39.160156 28.6875 -39.796875 C 27.5 -40.171875 25.285156 -40.359375 22.046875 -40.359375 Z M 17.625 -40.359375 "/></g></g></g><g fill="#ffffff" fill-opacity="1"><g transform="translate(244.366863, 200.191876)"><g><path d="M 39.484375 -42.828125 L 14.3125 -2.40625 L 22.453125 -2.40625 C 26.304688 -2.40625 29.003906 -2.644531 30.546875 -3.125 C 33.046875 -3.882812 35.203125 -5.28125 37.015625 -7.3125 C 38.828125 -9.34375 40.082031 -12.066406 40.78125 -15.484375 L 42.015625 -15.484375 L 40.265625 0 L 1.046875 0 L 26.25 -40.5 L 19.90625 -40.5 C 17.4375 -40.5 15.8125 -40.421875 15.03125 -40.265625 C 13.5625 -39.992188 12.175781 -39.453125 10.875 -38.640625 C 9.582031 -37.828125 8.507812 -36.75 7.65625 -35.40625 C 6.800781 -34.0625 6.132812 -32.359375 5.65625 -30.296875 L 4.484375 -30.296875 L 5.65625 -42.828125 Z M 39.484375 -42.828125 "/></g></g></g><g fill="#ffffff" fill-opacity="1"><g transform="translate(294.500542, 200.191876)"><g><path d="M 26.90625 -12.1875 L 11.78125 -12.1875 L 9.984375 -8.015625 C 9.390625 -6.628906 9.09375 -5.484375 9.09375 -4.578125 C 9.09375 -3.378906 9.578125 -2.492188 10.546875 -1.921875 C 11.117188 -1.585938 12.519531 -1.335938 14.75 -1.171875 L 14.75 0 L 0.5 0 L 0.5 -1.171875 C 2.039062 -1.398438 3.304688 -2.035156 4.296875 -3.078125 C 5.285156 -4.117188 6.503906 -6.269531 7.953125 -9.53125 L 23.28125 -43.71875 L 23.875 -43.71875 L 39.328125 -8.59375 C 40.796875 -5.257812 42.003906 -3.164062 42.953125 -2.3125 C 43.671875 -1.65625 44.679688 -1.273438 45.984375 -1.171875 L 45.984375 0 L 25.265625 0 L 25.265625 -1.171875 L 26.125 -1.171875 C 27.78125 -1.171875 28.945312 -1.398438 29.625 -1.859375 C 30.09375 -2.203125 30.328125 -2.6875 30.328125 -3.3125 C 30.328125 -3.695312 30.257812 -4.085938 30.125 -4.484375 C 30.082031 -4.671875 29.769531 -5.460938 29.1875 -6.859375 Z M 25.84375 -14.53125 L 19.453125 -29.28125 L 12.890625 -14.53125 Z M 25.84375 -14.53125 "/></g></g></g><g fill="#ffffff" fill-opacity="1"><g transform="translate(132.478183, 214.637067)"><g><path d="M 6.003906 0 L 6.003906 -0.816406 L 1.816406 -0.816406 L 1.816406 -3.847656 L 5.878906 -3.847656 L 5.878906 -4.675781 L 1.816406 -4.675781 L 1.816406 -7.707031 L 6.003906 -7.707031 L 6.003906 -8.523438 L 0.941406 -8.523438 L 0.941406 0 Z M 6.003906 0 "/></g></g></g><g fill="#ffffff" fill-opacity="1"><g transform="translate(142.865126, 214.637067)"><g><path d="M 8.796875 0 L 9.6875 0 L 7.707031 -9.085938 L 4.914062 -1.792969 L 2.117188 -9.085938 L 0.125 0 L 1.027344 0 L 2.34375 -6.066406 L 4.914062 0.5 L 7.46875 -6.066406 Z M 8.796875 0 "/></g></g></g><g fill="#ffffff" fill-opacity="1"><g transform="translate(156.120828, 214.637067)"><g/></g></g><g fill="#ffffff" fill-opacity="1"><g transform="translate(162.949998, 214.637067)"><g><path d="M 6.003906 0 L 6.003906 -0.816406 L 1.816406 -0.816406 L 1.816406 -3.847656 L 5.878906 -3.847656 L 5.878906 -4.675781 L 1.816406 -4.675781 L 1.816406 -7.707031 L 6.003906 -7.707031 L 6.003906 -8.523438 L 0.941406 -8.523438 L 0.941406 0 Z M 6.003906 0 "/></g></g></g><g fill="#ffffff" fill-opacity="1"><g transform="translate(173.336941, 214.637067)"><g><path d="M 3.296875 -4.011719 C 4.398438 -3.746094 5.152344 -3.457031 5.550781 -3.132812 C 5.828125 -2.90625 5.964844 -2.621094 5.964844 -2.269531 C 5.964844 -1.917969 5.890625 -1.628906 5.738281 -1.429688 C 5.363281 -0.902344 4.6875 -0.640625 3.734375 -0.640625 C 2.40625 -0.640625 1.652344 -1.089844 1.492188 -1.992188 L 0.464844 -1.992188 C 0.765625 -0.550781 1.855469 0.164062 3.734375 0.164062 C 4.574219 0.164062 5.277344 -0.0117188 5.839844 -0.386719 C 6.515625 -0.828125 6.867188 -1.480469 6.867188 -2.332031 C 6.867188 -3.03125 6.59375 -3.570312 6.039062 -3.949219 C 5.652344 -4.222656 5.027344 -4.472656 4.160156 -4.699219 C 3.285156 -4.925781 2.71875 -5.113281 2.457031 -5.25 C 1.878906 -5.539062 1.589844 -5.941406 1.605469 -6.464844 C 1.605469 -6.742188 1.652344 -6.980469 1.78125 -7.15625 C 2.105469 -7.644531 2.683594 -7.894531 3.507812 -7.894531 C 4.675781 -7.894531 5.339844 -7.519531 5.515625 -6.792969 L 6.464844 -6.792969 C 6.152344 -8.019531 5.164062 -8.648438 3.507812 -8.648438 C 2.757812 -8.648438 2.09375 -8.445312 1.542969 -8.046875 C 0.976562 -7.644531 0.6875 -7.054688 0.6875 -6.253906 C 0.6875 -5.164062 1.566406 -4.410156 3.296875 -4.011719 Z M 3.296875 -4.011719 "/></g></g></g><g fill="#ffffff" fill-opacity="1"><g transform="translate(183.97443, 214.637067)"><g><path d="M 3.296875 -4.011719 C 4.398438 -3.746094 5.152344 -3.457031 5.550781 -3.132812 C 5.828125 -2.90625 5.964844 -2.621094 5.964844 -2.269531 C 5.964844 -1.917969 5.890625 -1.628906 5.738281 -1.429688 C 5.363281 -0.902344 4.6875 -0.640625 3.734375 -0.640625 C 2.40625 -0.640625 1.652344 -1.089844 1.492188 -1.992188 L 0.464844 -1.992188 C 0.765625 -0.550781 1.855469 0.164062 3.734375 0.164062 C 4.574219 0.164062 5.277344 -0.0117188 5.839844 -0.386719 C 6.515625 -0.828125 6.867188 -1.480469 6.867188 -2.332031 C 6.867188 -3.03125 6.59375 -3.570312 6.039062 -3.949219 C 5.652344 -4.222656 5.027344 -4.472656 4.160156 -4.699219 C 3.285156 -4.925781 2.71875 -5.113281 2.457031 -5.25 C 1.878906 -5.539062 1.589844 -5.941406 1.605469 -6.464844 C 1.605469 -6.742188 1.652344 -6.980469 1.78125 -7.15625 C 2.105469 -7.644531 2.683594 -7.894531 3.507812 -7.894531 C 4.675781 -7.894531 5.339844 -7.519531 5.515625 -6.792969 L 6.464844 -6.792969 C 6.152344 -8.019531 5.164062 -8.648438 3.507812 -8.648438 C 2.757812 -8.648438 2.09375 -8.445312 1.542969 -8.046875 C 0.976562 -7.644531 0.6875 -7.054688 0.6875 -6.253906 C 0.6875 -5.164062 1.566406 -4.410156 3.296875 -4.011719 Z M 3.296875 -4.011719 "/></g></g></g><g fill="#ffffff" fill-opacity="1"><g transform="translate(194.611918, 214.637067)"><g><path d="M 6.003906 0 L 6.003906 -0.816406 L 1.816406 -0.816406 L 1.816406 -3.847656 L 5.878906 -3.847656 L 5.878906 -4.675781 L 1.816406 -4.675781 L 1.816406 -7.707031 L 6.003906 -7.707031 L 6.003906 -8.523438 L 0.941406 -8.523438 L 0.941406 0 Z M 3.472656 -10.726562 L 4.375 -9.398438 L 5.261719 -9.398438 L 3.886719 -11.191406 L 3.058594 -11.191406 L 1.679688 -9.398438 L 2.570312 -9.398438 Z M 3.472656 -10.726562 "/></g></g></g><g fill="#ffffff" fill-opacity="1"><g transform="translate(204.998861, 214.637067)"><g><path d="M 1.816406 -6.277344 L 6.605469 0.527344 L 6.605469 -8.523438 L 5.726562 -8.523438 L 5.726562 -2.253906 L 0.941406 -9.0625 L 0.941406 0 L 1.816406 0 Z M 1.816406 -6.277344 "/></g></g></g><g fill="#ffffff" fill-opacity="1"><g transform="translate(215.987111, 214.637067)"><g><path d="M 8.761719 -2.605469 L 7.796875 -2.605469 C 7.496094 -2.054688 7.082031 -1.605469 6.554688 -1.277344 C 6.027344 -0.941406 5.4375 -0.777344 4.8125 -0.777344 C 3.871094 -0.777344 3.070312 -1.117188 2.40625 -1.816406 C 1.753906 -2.480469 1.441406 -3.296875 1.441406 -4.25 C 1.441406 -5.199219 1.753906 -6.015625 2.40625 -6.691406 C 2.707031 -7.003906 3.070312 -7.257812 3.484375 -7.445312 C 3.886719 -7.632812 4.285156 -7.734375 4.6875 -7.734375 C 5.074219 -7.734375 5.414062 -7.683594 5.714844 -7.59375 C 6.628906 -7.320312 7.320312 -6.765625 7.78125 -5.929688 L 8.746094 -5.929688 C 8.421875 -6.730469 7.90625 -7.382812 7.195312 -7.882812 C 6.464844 -8.382812 5.675781 -8.636719 4.8125 -8.636719 C 3.621094 -8.636719 2.621094 -8.195312 1.792969 -7.332031 C 1.402344 -6.929688 1.101562 -6.453125 0.890625 -5.929688 C 0.664062 -5.402344 0.5625 -4.835938 0.5625 -4.25 C 0.5625 -3.046875 0.964844 -2.03125 1.792969 -1.179688 C 2.621094 -0.300781 3.621094 0.125 4.8125 0.125 C 5.675781 0.125 6.464844 -0.125 7.207031 -0.625 C 7.921875 -1.128906 8.433594 -1.78125 8.761719 -2.605469 Z M 8.761719 -2.605469 "/></g></g></g><g fill="#ffffff" fill-opacity="1"><g transform="translate(228.56633, 214.637067)"><g><path d="M 1.816406 0 L 1.816406 -8.523438 L 0.941406 -8.523438 L 0.941406 0 Z M 1.816406 0 "/></g></g></g><g fill="#ffffff" fill-opacity="1"><g transform="translate(234.769131, 214.637067)"><g><path d="M 2.320312 -3.132812 L 3.871094 -7.054688 L 5.414062 -3.132812 Z M 7.605469 0 L 3.871094 -9.109375 L 0.125 0 L 1.078125 0 L 1.992188 -2.320312 L 5.738281 -2.320312 L 6.65625 0 Z M 7.605469 0 "/></g></g></g></svg>